<svg id="visual" viewBox="0 0 900 600" width="900" height="600" xmlns="http://www.w3.org/2000/svg" xmlns:xlink="http://www.w3.org/1999/xlink" version="1.1"><rect x="0" y="0" width="900" height="600" fill="#ffffff"></rect><path d="M0 462L113 462L113 464L225 464L225 477L338 477L338 466L450 466L450 465L563 465L563 459L675 459L675 471L788 471L788 473L900 473L900 476L900 601L900 601L788 601L788 601L675 601L675 601L563 601L563 601L450 601L450 601L338 601L338 601L225 601L225 601L113 601L113 601L0 601Z" fill="#efefb8"></path><path d="M0 466L113 466L113 466L225 466L225 498L338 498L338 465L450 465L450 477L563 477L563 480L675 480L675 472L788 472L788 494L900 494L900 492L900 601L900 601L788 601L788 601L675 601L675 601L563 601L563 601L450 601L450 601L338 601L338 601L225 601L225 601L113 601L113 601L0 601Z" fill="#e5e3ac"></path><path d="M0 490L113 490L113 519L225 519L225 520L338 520L338 489L450 489L450 519L563 519L563 488L675 488L675 495L788 495L788 514L900 514L900 492L900 601L900 601L788 601L788 601L675 601L675 601L563 601L563 601L450 601L450 601L338 601L338 601L225 601L225 601L113 601L113 601L0 601Z" fill="#dad7a1"></path><path d="M0 528L113 528L113 524L225 524L225 535L338 535L338 513L450 513L450 519L563 519L563 531L675 531L675 512L788 512L788 538L900 538L900 535L900 601L900 601L788 601L788 601L675 601L675 601L563 601L563 601L450 601L450 601L338 601L338 601L225 601L225 601L113 601L113 601L0 601Z" fill="#d0cb95"></path><path d="M0 560L113 560L113 562L225 562L225 558L338 558L338 559L450 559L450 552L563 552L563 564L675 564L675 563L788 563L788 550L900 550L900 546L900 601L900 601L788 601L788 601L675 601L675 601L563 601L563 601L450 601L450 601L338 601L338 601L225 601L225 601L113 601L113 601L0 601Z" fill="#c5bf8a"></path><path d="M0 584L113 584L113 567L225 567L225 580L338 580L338 581L450 581L450 567L563 567L563 576L675 576L675 577L788 577L788 571L900 571L900 564L900 601L900 601L788 601L788 601L675 601L675 601L563 601L563 601L450 601L450 601L338 601L338 601L225 601L225 601L113 601L113 601L0 601Z" fill="#bbb37f"></path></svg>