<svg id="visual" viewBox="0 0 300 470" width="300" height="470" xmlns="http://www.w3.org/2000/svg" xmlns:xlink="http://www.w3.org/1999/xlink" version="1.1"><rect x="0" y="0" width="300" height="470" fill="#ffffff"></rect><path d="M0 397L38 397L38 398L75 398L75 405L113 405L113 400L150 400L150 399L188 399L188 396L225 396L225 402L263 402L263 403L300 403L300 405L300 471L300 471L263 471L263 471L225 471L225 471L188 471L188 471L150 471L150 471L113 471L113 471L75 471L75 471L38 471L38 471L0 471Z" fill="#efefb8"></path><path d="M0 400L38 400L38 400L75 400L75 417L113 417L113 399L150 399L150 405L188 405L188 407L225 407L225 403L263 403L263 414L300 414L300 413L300 471L300 471L263 471L263 471L225 471L225 471L188 471L188 471L150 471L150 471L113 471L113 471L75 471L75 471L38 471L38 471L0 471Z" fill="#e5e3ac"></path><path d="M0 412L38 412L38 427L75 427L75 428L113 428L113 412L150 412L150 427L188 427L188 411L225 411L225 415L263 415L263 424L300 424L300 413L300 471L300 471L263 471L263 471L225 471L225 471L188 471L188 471L150 471L150 471L113 471L113 471L75 471L75 471L38 471L38 471L0 471Z" fill="#dad7a1"></path><path d="M0 432L38 432L38 430L75 430L75 435L113 435L113 424L150 424L150 427L188 427L188 434L225 434L225 424L263 424L263 437L300 437L300 436L300 471L300 471L263 471L263 471L225 471L225 471L188 471L188 471L150 471L150 471L113 471L113 471L75 471L75 471L38 471L38 471L0 471Z" fill="#d0cb95"></path><path d="M0 449L38 449L38 450L75 450L75 448L113 448L113 448L150 448L150 444L188 444L188 451L225 451L225 450L263 450L263 444L300 444L300 441L300 471L300 471L263 471L263 471L225 471L225 471L188 471L188 471L150 471L150 471L113 471L113 471L75 471L75 471L38 471L38 471L0 471Z" fill="#c5bf8a"></path><path d="M0 461L38 461L38 452L75 452L75 459L113 459L113 460L150 460L150 452L188 452L188 457L225 457L225 458L263 458L263 454L300 454L300 451L300 471L300 471L263 471L263 471L225 471L225 471L188 471L188 471L150 471L150 471L113 471L113 471L75 471L75 471L38 471L38 471L0 471Z" fill="#bbb37f"></path></svg>