<svg id="visual" viewBox="0 0 900 600" width="900" height="600" xmlns="http://www.w3.org/2000/svg" xmlns:xlink="http://www.w3.org/1999/xlink" version="1.1"><rect x="0" y="0" width="900" height="600" fill="#ffffff"></rect><path d="M0 516L37.5 515.8C75 515.7 150 515.3 225 516.2C300 517 375 519 450 519C525 519 600 517 675 517.5C750 518 825 521 862.5 522.5L900 524L900 601L862.5 601C825 601 750 601 675 601C600 601 525 601 450 601C375 601 300 601 225 601C150 601 75 601 37.5 601L0 601Z" fill="#f5f9b2"></path><path d="M0 528L37.5 527.7C75 527.3 150 526.7 225 527.2C300 527.7 375 529.3 450 531C525 532.7 600 534.3 675 535C750 535.7 825 535.3 862.5 535.2L900 535L900 601L862.5 601C825 601 750 601 675 601C600 601 525 601 450 601C375 601 300 601 225 601C150 601 75 601 37.5 601L0 601Z" fill="#edf1a9"></path><path d="M0 548L37.5 547.3C75 546.7 150 545.3 225 544.7C300 544 375 544 450 543C525 542 600 540 675 538.7C750 537.3 825 536.7 862.5 536.3L900 536L900 601L862.5 601C825 601 750 601 675 601C600 601 525 601 450 601C375 601 300 601 225 601C150 601 75 601 37.5 601L0 601Z" fill="#e6e9a1"></path><path d="M0 548L37.5 548.5C75 549 150 550 225 550.2C300 550.3 375 549.7 450 550.3C525 551 600 553 675 554.5C750 556 825 557 862.5 557.5L900 558L900 601L862.5 601C825 601 750 601 675 601C600 601 525 601 450 601C375 601 300 601 225 601C150 601 75 601 37.5 601L0 601Z" fill="#dee198"></path><path d="M0 561L37.5 561.2C75 561.3 150 561.7 225 562.2C300 562.7 375 563.3 450 563.3C525 563.3 600 562.7 675 562.3C750 562 825 562 862.5 562L900 562L900 601L862.5 601C825 601 750 601 675 601C600 601 525 601 450 601C375 601 300 601 225 601C150 601 75 601 37.5 601L0 601Z" fill="#d7d98f"></path><path d="M0 577L37.5 576.2C75 575.3 150 573.7 225 573.5C300 573.3 375 574.7 450 575.3C525 576 600 576 675 575.3C750 574.7 825 573.3 862.5 572.7L900 572L900 601L862.5 601C825 601 750 601 675 601C600 601 525 601 450 601C375 601 300 601 225 601C150 601 75 601 37.5 601L0 601Z" fill="#cfd287"></path><path d="M0 586L37.5 585.8C75 585.7 150 585.3 225 584.8C300 584.3 375 583.7 450 583.5C525 583.3 600 583.7 675 583.7C750 583.7 825 583.3 862.5 583.2L900 583L900 601L862.5 601C825 601 750 601 675 601C600 601 525 601 450 601C375 601 300 601 225 601C150 601 75 601 37.5 601L0 601Z" fill="#c8ca7e"></path></svg>